<svg xmlns="http://www.w3.org/2000/svg" xmlns:xlink="http://www.w3.org/1999/xlink" width="2000" zoomAndPan="magnify" viewBox="0 0 1500 562.499983" height="750" preserveAspectRatio="xMidYMid meet" version="1.0"><defs><g/><clipPath id="84b3749761"><path d="M 430 263 L 981 263 L 981 562 L 430 562 Z M 430 263 " clip-rule="nonzero"/></clipPath></defs><g fill="#ffffff" fill-opacity="1"><g transform="translate(29.080239, 400.828505)"><g><path d="M 154.71875 5.34375 C 137.988281 5.34375 122.554688 2.125 108.421875 -4.3125 C 94.296875 -10.757812 82.429688 -19.472656 72.828125 -30.453125 L 72.828125 82.296875 L 38.265625 82.296875 L 38.265625 -213.5625 L 66.65625 -213.5625 L 70.78125 -180.640625 C 80.375 -192.710938 92.375 -202.109375 106.78125 -208.828125 C 121.1875 -215.546875 137.164062 -218.90625 154.71875 -218.90625 C 175.84375 -218.90625 194.566406 -214.035156 210.890625 -204.296875 C 227.210938 -194.554688 240.035156 -181.320312 249.359375 -164.59375 C 258.679688 -147.863281 263.34375 -128.660156 263.34375 -106.984375 C 263.34375 -85.316406 258.679688 -66.046875 249.359375 -49.171875 C 240.035156 -32.296875 227.210938 -18.988281 210.890625 -9.25 C 194.566406 0.476562 175.84375 5.34375 154.71875 5.34375 Z M 71.59375 -106.984375 C 71.59375 -91.617188 74.953125 -77.96875 81.671875 -66.03125 C 88.398438 -54.101562 97.660156 -44.78125 109.453125 -38.0625 C 121.253906 -31.34375 134.832031 -27.984375 150.1875 -27.984375 C 165.820312 -27.984375 179.535156 -31.34375 191.328125 -38.0625 C 203.128906 -44.78125 212.320312 -54.101562 218.90625 -66.03125 C 225.488281 -77.96875 228.78125 -91.617188 228.78125 -106.984375 C 228.78125 -122.347656 225.488281 -135.992188 218.90625 -147.921875 C 212.320312 -159.859375 203.128906 -169.1875 191.328125 -175.90625 C 179.535156 -182.625 165.820312 -185.984375 150.1875 -185.984375 C 134.832031 -185.984375 121.253906 -182.625 109.453125 -175.90625 C 97.660156 -169.1875 88.398438 -159.859375 81.671875 -147.921875 C 74.953125 -135.992188 71.59375 -122.347656 71.59375 -106.984375 Z M 71.59375 -106.984375 "/></g></g></g><g fill="#ffffff" fill-opacity="1"><g transform="translate(298.600204, 400.828505)"><g><path d="M 38.265625 0 L 38.265625 -213.5625 L 66.65625 -213.5625 L 70.78125 -176.53125 C 78.457031 -189.414062 87.988281 -198.804688 99.375 -204.703125 C 110.757812 -210.609375 125.503906 -213.5625 143.609375 -213.5625 L 162.953125 -213.5625 L 162.953125 -181.46875 L 141.96875 -181.46875 C 129.070312 -181.46875 117.410156 -178.859375 106.984375 -173.640625 C 96.554688 -168.429688 88.253906 -159.789062 82.078125 -147.71875 C 75.910156 -135.65625 72.828125 -119.472656 72.828125 -99.171875 L 72.828125 0 Z M 38.265625 0 "/></g></g></g><g fill="#00bb7e" fill-opacity="1"><g transform="translate(445.499122, 400.828505)"><g><path d="M 134.5625 5.34375 C 112.332031 5.34375 92.710938 0.546875 75.703125 -9.046875 C 58.703125 -18.648438 45.398438 -31.957031 35.796875 -48.96875 C 26.191406 -65.976562 21.390625 -85.316406 21.390625 -106.984375 C 21.390625 -128.929688 26.191406 -148.269531 35.796875 -165 C 45.398438 -181.738281 58.703125 -194.90625 75.703125 -204.5 C 92.710938 -214.101562 112.332031 -218.90625 134.5625 -218.90625 C 156.78125 -218.90625 176.390625 -214.101562 193.390625 -204.5 C 210.398438 -194.90625 223.707031 -181.738281 233.3125 -165 C 242.914062 -148.269531 247.71875 -128.929688 247.71875 -106.984375 C 247.71875 -85.316406 242.914062 -65.976562 233.3125 -48.96875 C 223.707031 -31.957031 210.398438 -18.648438 193.390625 -9.046875 C 176.390625 0.546875 156.78125 5.34375 134.5625 5.34375 Z M 55.96875 -106.984375 C 55.96875 -91.347656 59.328125 -77.5625 66.046875 -65.625 C 72.765625 -53.695312 82.019531 -44.441406 93.8125 -37.859375 C 105.613281 -31.273438 119.195312 -27.984375 134.5625 -27.984375 C 149.914062 -27.984375 163.488281 -31.273438 175.28125 -37.859375 C 187.082031 -44.441406 196.34375 -53.695312 203.0625 -65.625 C 209.789062 -77.5625 213.15625 -91.347656 213.15625 -106.984375 C 213.15625 -122.617188 209.789062 -136.332031 203.0625 -148.125 C 196.34375 -159.925781 187.082031 -169.1875 175.28125 -175.90625 C 163.488281 -182.625 149.914062 -185.984375 134.5625 -185.984375 C 119.195312 -185.984375 105.613281 -182.625 93.8125 -175.90625 C 82.019531 -169.1875 72.765625 -159.925781 66.046875 -148.125 C 59.328125 -136.332031 55.96875 -122.617188 55.96875 -106.984375 Z M 55.96875 -106.984375 "/></g></g></g><g fill="#00bb7e" fill-opacity="1"><g transform="translate(699.382849, 400.828505)"><g><path d="M 134.5625 5.34375 C 112.332031 5.34375 92.710938 0.546875 75.703125 -9.046875 C 58.703125 -18.648438 45.398438 -31.957031 35.796875 -48.96875 C 26.191406 -65.976562 21.390625 -85.316406 21.390625 -106.984375 C 21.390625 -128.929688 26.191406 -148.269531 35.796875 -165 C 45.398438 -181.738281 58.703125 -194.90625 75.703125 -204.5 C 92.710938 -214.101562 112.332031 -218.90625 134.5625 -218.90625 C 156.78125 -218.90625 176.390625 -214.101562 193.390625 -204.5 C 210.398438 -194.90625 223.707031 -181.738281 233.3125 -165 C 242.914062 -148.269531 247.71875 -128.929688 247.71875 -106.984375 C 247.71875 -85.316406 242.914062 -65.976562 233.3125 -48.96875 C 223.707031 -31.957031 210.398438 -18.648438 193.390625 -9.046875 C 176.390625 0.546875 156.78125 5.34375 134.5625 5.34375 Z M 55.96875 -106.984375 C 55.96875 -91.347656 59.328125 -77.5625 66.046875 -65.625 C 72.765625 -53.695312 82.019531 -44.441406 93.8125 -37.859375 C 105.613281 -31.273438 119.195312 -27.984375 134.5625 -27.984375 C 149.914062 -27.984375 163.488281 -31.273438 175.28125 -37.859375 C 187.082031 -44.441406 196.34375 -53.695312 203.0625 -65.625 C 209.789062 -77.5625 213.15625 -91.347656 213.15625 -106.984375 C 213.15625 -122.617188 209.789062 -136.332031 203.0625 -148.125 C 196.34375 -159.925781 187.082031 -169.1875 175.28125 -175.90625 C 163.488281 -182.625 149.914062 -185.984375 134.5625 -185.984375 C 119.195312 -185.984375 105.613281 -182.625 93.8125 -175.90625 C 82.019531 -169.1875 72.765625 -159.925781 66.046875 -148.125 C 59.328125 -136.332031 55.96875 -122.617188 55.96875 -106.984375 Z M 55.96875 -106.984375 "/></g></g></g><g fill="#ffffff" fill-opacity="1"><g transform="translate(947.096194, 400.828505)"><g><path d="M 58.84375 -235.375 C 58.84375 -259.78125 65.21875 -278.289062 77.96875 -290.90625 C 90.726562 -303.53125 109.179688 -309.84375 133.328125 -309.84375 L 169.9375 -309.84375 L 169.9375 -277.34375 L 136.609375 -277.34375 C 121.523438 -277.34375 110.550781 -273.84375 103.6875 -266.84375 C 96.832031 -259.851562 93.40625 -248.675781 93.40625 -233.3125 L 93.40625 -213.5625 L 167.890625 -213.5625 L 167.890625 -181.875 L 93.40625 -181.875 L 93.40625 0 L 58.84375 0 L 58.84375 -181.875 L 12.34375 -181.875 L 12.34375 -213.5625 L 58.84375 -213.5625 Z M 58.84375 -235.375 "/></g></g></g><g fill="#ffffff" fill-opacity="1"><g transform="translate(1105.927857, 400.828505)"><g><path d="M 38.265625 0 L 38.265625 -213.5625 L 72.828125 -213.5625 L 72.828125 0 Z M 27.5625 -275.6875 C 27.5625 -283.644531 30.097656 -290.160156 35.171875 -295.234375 C 40.253906 -300.316406 47.046875 -302.859375 55.546875 -302.859375 C 64.054688 -302.859375 70.78125 -300.316406 75.71875 -295.234375 C 80.65625 -290.160156 83.125 -283.644531 83.125 -275.6875 C 83.125 -268.007812 80.65625 -261.632812 75.71875 -256.5625 C 70.78125 -251.488281 64.054688 -248.953125 55.546875 -248.953125 C 47.046875 -248.953125 40.253906 -251.488281 35.171875 -256.5625 C 30.097656 -261.632812 27.5625 -268.007812 27.5625 -275.6875 Z M 27.5625 -275.6875 "/></g></g></g><g fill="#ffffff" fill-opacity="1"><g transform="translate(1201.802871, 400.828505)"><g><path d="M 134.5625 5.34375 C 112.332031 5.34375 92.710938 0.546875 75.703125 -9.046875 C 58.703125 -18.648438 45.398438 -31.957031 35.796875 -48.96875 C 26.191406 -65.976562 21.390625 -85.316406 21.390625 -106.984375 C 21.390625 -128.929688 26.191406 -148.269531 35.796875 -165 C 45.398438 -181.738281 58.703125 -194.90625 75.703125 -204.5 C 92.710938 -214.101562 112.332031 -218.90625 134.5625 -218.90625 C 156.78125 -218.90625 176.390625 -214.101562 193.390625 -204.5 C 210.398438 -194.90625 223.707031 -181.738281 233.3125 -165 C 242.914062 -148.269531 247.71875 -128.929688 247.71875 -106.984375 C 247.71875 -85.316406 242.914062 -65.976562 233.3125 -48.96875 C 223.707031 -31.957031 210.398438 -18.648438 193.390625 -9.046875 C 176.390625 0.546875 156.78125 5.34375 134.5625 5.34375 Z M 55.96875 -106.984375 C 55.96875 -91.347656 59.328125 -77.5625 66.046875 -65.625 C 72.765625 -53.695312 82.019531 -44.441406 93.8125 -37.859375 C 105.613281 -31.273438 119.195312 -27.984375 134.5625 -27.984375 C 149.914062 -27.984375 163.488281 -31.273438 175.28125 -37.859375 C 187.082031 -44.441406 196.34375 -53.695312 203.0625 -65.625 C 209.789062 -77.5625 213.15625 -91.347656 213.15625 -106.984375 C 213.15625 -122.617188 209.789062 -136.332031 203.0625 -148.125 C 196.34375 -159.925781 187.082031 -169.1875 175.28125 -175.90625 C 163.488281 -182.625 149.914062 -185.984375 134.5625 -185.984375 C 119.195312 -185.984375 105.613281 -182.625 93.8125 -175.90625 C 82.019531 -169.1875 72.765625 -159.925781 66.046875 -148.125 C 59.328125 -136.332031 55.96875 -122.617188 55.96875 -106.984375 Z M 55.96875 -106.984375 "/></g></g></g><g clip-path="url(#84b3749761)"><path stroke-linecap="butt" transform="matrix(0.748578, 0.0336539, -0.0336539, 0.748578, 587.180149, 420.186271)" fill="none" stroke-linejoin="miter" d="M 18.052984 16.681534 C 62.969944 110.896772 156.652779 110.89617 299.091074 16.680196 " stroke="#00bb7e" stroke-width="40" stroke-opacity="1" stroke-miterlimit="4"/></g></svg>